<svg t="1715071552293" class="icon" viewBox="0 0 1024 1024" version="1.1" xmlns="http://www.w3.org/2000/svg" p-id="5515"
     width="200" height="200">
    <path d="M512 10.24C234.9056 10.24 10.24 234.9056 10.24 512s224.6656 501.76 501.76 501.76 501.76-224.6656 501.76-501.76-224.6656-501.76-501.76-501.76zM394.7008 398.6432c2.56-6.2976 6.2464-12.032 9.5744-17.92 8.0384-14.3872 16.4352-28.6208 23.9616-43.3152 0.2048-0.4096 0.5632-0.6656 0.8704-1.024 0.5632-2.816 2.048-5.2224 3.6352-7.5264 7.2192-14.2336 13.824-28.7232 19.2512-43.7248 5.9392-16.384 10.1376-33.1776 11.0592-50.688 0.6144-11.4176-0.9728-22.5792-3.84-33.5872-6.656-25.5488-19.8144-47.616-36.2496-67.9424-1.024-1.28-2.048-2.56-2.6112-4.4032 2.816 1.4848 5.6832 2.8672 8.3456 4.5056 18.5344 11.3664 35.84 24.2688 50.5344 40.3968 7.5264 8.2432 14.0288 17.3056 18.2784 27.7504 4.1472 7.4752 7.1168 15.4624 9.8816 23.5008 6.4 18.6368 11.264 37.6832 13.7216 57.2928 2.7648 22.1184 1.9968 43.9296-3.3792 65.5872-2.304 9.216-5.12 18.3296-7.5264 27.5456-3.328 12.8-7.1168 25.5488-9.0112 38.7072 0.256 1.5872 0.2048 3.1232-0.5632 4.608 0.1536 3.1232 0.0512 6.2464-0.3584 9.3184 0.3072 0.8704 0.3072 1.6896 0 2.56 0.1024 2.816 0.256 5.632 0.3584 8.448 0.6144 0.8192 0.7168 1.6896 0.4608 2.6624 0.3584 1.1264 0.6656 2.2528 0.3584 3.4304 1.0752 0.7168 0.8192 1.9456 1.1264 2.9184 1.0752 3.4304 2.1504 6.8096 3.9424 9.8816 4.7616 8.192 11.3664 13.3632 21.3504 12.8512 2.6112-0.1536 5.2224-0.1536 7.8336-0.2048 16.9472-4.7616 26.624-17.2032 33.2288-32.512 5.0176-11.5712 8.3968-23.7056 9.8304-36.2496 1.0752-9.5744 0.768-19.2512-0.8704-28.7744-1.0752-6.2464-2.2528-12.4928-3.3792-18.7392-0.9728-0.7168-0.8704-1.8944-1.1264-2.8672-2.7648-9.5232-5.7344-18.944-9.1648-28.2112-0.3584-0.9728-0.9216-1.9456-0.6144-3.3792 3.1232 0.7168 4.864 3.2768 7.2192 4.8128 2.4064 1.5872 5.0176 2.9696 6.9632 5.2736 5.5296 4.4032 11.1616 8.704 16.5888 13.1584 12.1344 9.984 23.3472 20.992 34.4576 32.0512 0.3072 0.3072 0.4608 0.768 0.6656 1.1776 9.0112 9.1648 17.152 19.0464 24.8832 29.2864a255.8464 255.8464 0 0 1 17.664 26.6752c5.632 9.7792 10.3424 20.0704 13.9264 30.8224 3.2768 6.2464 4.4544 13.1584 6.2976 19.8656 4.1984 15.3088 6.6048 30.9248 8.9088 46.592 1.3312 8.9088 1.2288 17.9712 1.0752 26.9824-0.3072 17.7152-3.6864 34.816-9.6256 51.456-3.3792 9.4208-7.8848 18.176-13.2096 26.5728-2.0992 3.2768-3.2768 5.4272-6.4 9.6768 0 0-1.6384 2.8672-2.56 4.2496-4.8128 7.2192-10.6496 13.568-16.9984 19.456-1.8944 1.7408-4.0448 3.328-6.4512 4.096-3.4304 2.7648-6.8096 5.5296-10.24 8.2432-4.7104 3.7888-9.3184 7.6288-14.7456 10.3936-11.6736 6.7072-23.9104 12.0832-36.4544 16.896-1.8944 0.7168-7.3216 2.5088-8.3968 2.8672-4.4032 1.536-8.8576 2.816-13.4656 3.5328-0.3072 0.0512-0.6656 0.1536-0.9728 0.2048-1.0752 0.768-2.5088-0.2048-3.5328 0.768-0.5632 0.0512-1.1776 0.0512-1.7408 0.1024 0 0-0.0512 0-0.0512-0.0512 0 0 0.0512 0 0.0512 0.0512-3.8912 1.4848-8.0384 1.6384-12.1856 2.2528 9.4208-5.5808 18.0736-12.2368 26.6752-18.8928 0.4608-0.6144 0.9728-1.2288 1.792-1.4336 3.072-2.816 6.144-5.632 9.1648-8.448 9.2672-9.6256 16.9984-20.3264 23.808-31.8464 8.5504-14.5408 13.568-30.1056 14.4384-47.0016 0.4608-8.7552-0.9728-17.3056-3.4304-25.6512-4.9664-16.7936-13.0048-32.0512-22.784-46.4896-0.9216-1.3312-2.816-1.9968-2.6624-4.0448-0.3072 0.2048-0.5632 0.4096-0.8704 0.6144 0.4608 1.1264 0.6144 2.2528 0.2048 3.4304 0.768 1.8432 0.8192 3.7376 0.4608 5.6832 0.3584 2.048 0.3584 4.0448 0 6.0928 0.3072 1.536 0.3584 3.072-0.4096 4.5056-0.256 9.0624-2.8672 17.5616-5.888 26.0096-2.6624 8.0384-6.656 15.36-11.5712 22.1184-15.4112 21.0432-35.2768 36.7104-58.5216 48.1792-0.3584 0.2048-0.8192 0.2048-1.8432 0.4608 1.1776-3.5328 2.2016-6.656 3.2768-9.8304 4.1472-12.032 7.7824-24.2176 10.0352-36.7616 3.1232-17.6128 0.3584-34.304-8.704-49.7664-3.7888-6.5024-8.704-12.032-15.4624-15.616-0.6144-0.3584-1.0752-1.0752-1.5872-1.6384-3.072-1.2288-6.0928-2.56-9.216-3.6352-3.584-1.2288-7.3728-1.8432-11.1616-2.304-8.3456-0.0512-16.5376 0.6144-24.1664 4.5568-8.9088 4.608-16.3328 10.8544-22.2208 18.944-1.9968 2.7136-3.7888 5.5808-5.6832 8.3968-4.2496 8.0384-6.8608 16.64-9.6256 25.2416-1.3824 8.448-1.9456 16.896-1.536 25.4464 1.024 21.7088 5.888 42.5984 12.288 63.232 0.4608 1.4336 1.536 2.7648 0.768 4.6592-4.1472-2.2016-7.2192-5.6832-10.8032-8.4992-2.6624-0.1536-4.352-2.0992-6.1952-3.6864-5.5808-4.7616-11.5712-9.0624-16.128-14.9504-7.3728-6.656-13.9264-14.0288-19.968-21.9648-7.7824-10.24-14.848-20.9408-20.736-32.4608-11.1104-21.8624-15.616-44.9536-13.1584-69.376 0.4608-4.7616 0.5632-9.5744 1.9968-14.1824 0.0512-0.6144 0.1536-1.2288 0.2048-1.8432 0.512-4.8128 1.4848-9.5232 3.4816-13.9776 2.304-11.4176 6.144-22.3744 10.5984-33.1264 9.5744-23.0912 21.0432-45.2096 33.2288-66.9696 0.256-0.4096 0.8704-0.9728 1.3312-1.536z m432.0768 228.1984c-0.4608 12.288-2.4576 24.32-4.9152 36.352-3.328 16.1792-9.0112 31.5392-15.9232 46.4896-6.7584 14.592-15.36 27.9552-25.1904 40.5504-0.5632 0.7168-1.9456 1.9456-1.9456 1.9456-0.2048 1.2288-9.0112 11.4688-11.8784 14.6432-10.496 11.8272-22.1696 22.4256-34.56 32.1024-14.336 11.2128-29.696 21.0432-46.08 29.0304-0.6656 0.3072-1.4336 0.4608-2.2016 0.6656-4.4032 2.816-9.216 4.8128-14.0288 6.8608-13.6192 5.8368-27.6992 10.0352-42.0864 13.312-1.024 0.256-2.1504 0.2048-3.1744 0.3072v-0.0512c-6.0928 1.7408-12.2368 2.816-18.5856 2.7136-5.5808 1.536-11.3152 1.3824-16.9984 1.4336-20.0704 0.2048-40.0896-1.1776-59.904-4.6592-12.1344-2.1504-24.2688-4.352-36.1472-7.8336-0.7168-0.2048-1.536-0.256-2.0992-0.8704-8.2432-1.3824-16.0256-4.4032-23.9104-6.9632-23.4496-7.7312-46.0288-17.5616-67.84-29.1328-2.816-1.4848-5.7856-2.8672-8.2944-4.9664-0.7168-0.256-1.4848-0.4608-2.1504-0.8704-9.8816-5.7344-19.6096-11.776-28.9792-18.3808-0.4608-0.3584-0.8192-0.8704-1.2288-1.3312-7.424-4.4544-13.9264-9.984-20.1728-15.9232-1.2288-0.3584-2.048-1.3824-2.9184-2.2016-10.7008-9.7792-20.736-20.224-30.3616-31.1296-8.7552-9.9328-17.1008-20.1728-24.832-30.9248a361.10848 361.10848 0 0 1-20.6848-31.8976c-7.0144-12.2368-13.6192-24.6784-18.8928-37.7856-0.3584-0.8704-0.9216-1.6384-0.768-2.6112-3.0208-5.0688-4.7104-10.752-6.6048-16.2816-7.6288-21.9136-12.6464-44.4416-14.3872-67.584-1.8944-25.1904-0.9728-50.2784 4.5056-75.008 9.5232-43.2128 29.8496-80.5888 61.7472-111.2576 24.4736-23.5008 52.3264-41.8304 83.968-54.1184 1.1264-0.4608 2.304-0.9216 3.4304-1.3312 0.256-0.1024 0.5632 0.0512 1.2288 0.1536-6.7072 4.4544-13.2608 8.6528-19.3024 13.568-6.144 4.9664-12.0832 10.1376-17.7664 15.616-0.6656 0.6144-1.4336 1.1264-2.2016 1.6896-9.2672 9.7792-17.92 20.1216-25.5488 31.232C289.0752 391.6288 276.48 423.7824 271.36 458.9568c-2.5088 17.2544-3.7888 34.56-2.816 51.968 1.024 18.2272 4.5056 35.9424 9.728 53.4016 6.144 20.6336 15.4624 39.8848 26.112 58.4192 7.2704 12.6464 15.872 24.4736 25.0368 35.84 4.9152 6.0928 10.0864 11.8784 15.1552 17.8176 3.7888 4.4544 8.2432 8.3456 12.3904 12.4928 3.072 3.072 6.0416 6.144 9.0624 9.2672 5.1712 3.328 9.5232 7.68 14.08 11.8272 5.376 3.7888 10.8032 7.5264 15.7696 11.8272 3.8912 2.4576 7.8336 4.9152 11.7248 7.3728 25.9072 16.7936 53.6064 29.696 82.9952 38.9632 0.256 0.1024 0.4608 0.3584 0.7168 0.5632 1.28-0.1536 2.4064 0.256 3.584 0.6144 14.7968 4.4544 29.9008 7.3728 45.1584 9.216 6.2464 0.768 12.5952 1.0752 18.8416 1.5872 4.608-0.512 9.216-0.0512 13.8752-0.1024 12.9536-0.1024 25.856-0.1024 38.8096-0.1536 3.6352-1.4848 7.5776-1.024 11.3152-1.4848 17.152-2.0992 33.1776-7.5776 48.2816-15.8208 1.0752-0.5632 2.2016-1.024 3.328-1.536 0.7168-0.512 1.4336-1.1264 2.2016-1.5872 20.736-12.288 39.5776-27.0336 55.9104-44.8 14.9504-16.3328 26.5216-34.9696 34.6624-55.7056 5.12-13.0048 9.216-26.3168 11.6224-40.1408 3.84-21.9136 5.3248-43.9808 2.7648-66.2016-3.9424-33.8944-14.08-65.9968-27.136-97.3312-6.7584-16.1792-13.7728-32.2048-22.2208-47.5648-0.2048-0.3584-0.1536-0.9216-0.256-1.3312-3.6864-5.5296-6.6048-11.4176-10.2912-18.1248 3.328 1.1264 4.7616 3.1744 6.5024 4.6592 7.424 6.2976 14.5408 12.9536 21.1968 20.1216 0.6144 0.6656 1.28 1.3312 1.4848 2.304 5.888 6.5536 11.9808 12.9536 16.64 20.5312 7.4752 8.9088 13.5168 18.8416 19.3536 28.8768 15.1552 25.9072 24.7808 53.9648 31.488 83.1488 6.144 26.0608 9.3184 52.2752 8.3456 78.9504z"
          fill="#EF8F38" p-id="5516"></path>
    <path d="M607.7952 393.6768l0.0512 0.0512zM224.3584 569.5488l0.3072 0.1536-0.3072-0.3072v0.1536zM265.728 661.9136c0.1536-1.1264-0.1024-1.9456-0.8704-2.5088 0.3072 0.8704 0.6144 1.6896 0.8704 2.5088z"
          fill="#FFFFFF" p-id="5517"></path>
</svg>
